<svg xmlns="http://www.w3.org/2000/svg" viewBox="0 0 512 512" width="512" height="512">
  <path d="M86.4370 272.6170Q80.6950 272.6170 76.5770 270.6160Q72.4590 268.6150 69.8200 265.3380Q67.1810 262.0610 65.9630 258.2620Q64.7450 254.4630 64.7450 250.8670L64.7450 249.5910Q64.7450 245.6470 66.0210 241.7900Q67.2970 237.9330 69.9360 234.8010Q72.5750 231.6690 76.6060 229.7840Q80.6370 227.8990 86.1470 227.8990Q91.8890 227.8990 96.2680 230.0450Q100.6470 232.1910 103.2860 236.0190Q105.9250 239.8470 106.4470 244.8930L96.8770 244.8930Q96.2390 241.1230 93.3390 238.9480Q90.4390 236.7730 86.1470 236.7730Q80.4630 236.7730 77.4180 240.5140Q74.3730 244.2550 74.3730 250.2870Q74.3730 254.2890 75.7650 257.3340Q77.1570 260.3790 79.8540 262.0610Q82.5510 263.7430 86.4370 263.7430Q90.8450 263.7430 93.8900 261.5970Q96.9350 259.4510 97.5730 255.6810L107.0850 255.6810Q106.5630 260.3790 103.9820 264.2070Q101.4010 268.0350 96.9640 270.3260Q92.5270 272.6170 86.4370 272.6170M121.9330 272.3270Q116.7710 272.3270 113.6100 269.6590Q110.4490 266.9910 110.4490 262.1190Q110.4490 258.6390 112.2470 256.4060Q114.0450 254.1730 117.2930 253.1000Q120.5410 252.0270 124.7750 252.0270L130.5170 252.0270L130.5170 251.9110Q130.5170 247.0390 125.6450 247.0390Q124.3690 247.0390 122.2810 247.1260Q120.1930 247.2130 117.9600 247.3000Q115.7270 247.3870 113.9870 247.5030L113.9870 239.6730Q116.0170 239.4990 118.9750 239.3540Q121.9330 239.2090 124.4270 239.2090Q131.7350 239.2090 135.5920 242.3120Q139.4490 245.4150 139.4490 252.0270L139.4490 271.5150L132.0830 271.5150L132.0830 265.5410Q131.0390 268.8470 128.4870 270.5870Q125.9350 272.3270 121.9330 272.3270M124.7170 265.8890Q126.9790 265.8890 128.6610 264.6130Q130.3430 263.3370 130.5170 259.7410L130.5170 257.1890L124.7170 257.1890Q122.2810 257.1890 120.9760 258.4070Q119.6710 259.6250 119.6710 261.5970Q119.6710 263.5110 120.9760 264.7000Q122.2810 265.8890 124.7170 265.8890M159.4010 272.5010Q152.6150 272.5010 148.7870 269.7170Q144.9590 266.9330 144.7270 261.8870L152.9630 261.8870Q153.1370 263.3950 154.7610 264.5840Q156.3850 265.7730 159.5750 265.7730Q161.9530 265.7730 163.5770 264.9610Q165.2010 264.1490 165.2010 262.5250Q165.2010 261.1330 163.9830 260.2920Q162.7650 259.4510 159.6330 259.1030L157.1390 258.8710Q151.3970 258.2330 148.5260 255.6810Q145.6550 253.1290 145.6550 249.0110Q145.6550 245.6470 147.3660 243.3850Q149.0770 241.1230 152.0350 239.9630Q154.9930 238.8030 158.8210 238.8030Q164.9690 238.8030 168.7100 241.5000Q172.4510 244.1970 172.6830 249.3010L164.4470 249.3010Q164.2150 247.7930 162.7940 246.6910Q161.3730 245.5890 158.7050 245.5890Q156.5590 245.5890 155.2830 246.4010Q154.0070 247.2130 154.0070 248.6050Q154.0070 249.9390 155.1090 250.6350Q156.2110 251.3310 158.7050 251.6210L161.1990 251.8530Q166.9990 252.4910 170.2760 255.1300Q173.5530 257.7690 173.5530 262.1190Q173.5530 266.9330 169.7250 269.7170Q165.8970 272.5010 159.4010 272.5010M194.1430 272.6170Q190.0830 272.6170 186.9800 271.2250Q183.8770 269.8330 181.7890 267.4840Q179.7010 265.1350 178.6570 262.2060Q177.6130 259.2770 177.6130 256.2030L177.6130 255.0430Q177.6130 251.9110 178.6570 248.9530Q179.7010 245.9950 181.7890 243.6750Q183.8770 241.3550 186.8640 239.9920Q189.8510 238.6290 193.7950 238.6290Q198.8990 238.6290 202.4080 240.9200Q205.9170 243.2110 207.7730 246.9230Q209.6290 250.6350 209.6290 254.9270L209.6290 258.0590L186.3710 258.0590Q186.8350 261.3070 188.7200 263.1920Q190.6050 265.0770 194.1430 265.0770Q196.6370 265.0770 198.2900 264.1200Q199.9430 263.1630 200.5230 261.6550L209.0490 261.6550Q208.0050 266.5270 204.0320 269.5720Q200.0590 272.6170 194.1430 272.6170M193.7950 246.1690Q190.7790 246.1690 188.8940 247.8800Q187.0090 249.5910 186.4870 252.7810L200.7550 252.7810Q200.2910 249.5910 198.5220 247.8800Q196.7530 246.1690 193.7950 246.1690M237.9910 271.5150L228.4790 271.5150L228.4790 229.1750L253.8830 229.1750L253.8830 237.0630L237.9910 237.0630L237.9910 246.5750L253.1870 246.5750L253.1870 254.4630L237.9910 254.4630L237.9910 271.5150M268.2670 272.3270Q263.1050 272.3270 259.9440 269.6590Q256.7830 266.9910 256.7830 262.1190Q256.7830 258.6390 258.5810 256.4060Q260.3790 254.1730 263.6270 253.1000Q266.8750 252.0270 271.1090 252.0270L276.8510 252.0270L276.8510 251.9110Q276.8510 247.0390 271.9790 247.0390Q270.7030 247.0390 268.6150 247.1260Q266.5270 247.2130 264.2940 247.3000Q262.0610 247.3870 260.3210 247.5030L260.3210 239.6730Q262.3510 239.4990 265.3090 239.3540Q268.2670 239.2090 270.7610 239.2090Q278.0690 239.2090 281.9260 242.3120Q285.7830 245.4150 285.7830 252.0270L285.7830 271.5150L278.4170 271.5150L278.4170 265.5410Q277.3730 268.8470 274.8210 270.5870Q272.2690 272.3270 268.2670 272.3270M271.0510 265.8890Q273.3130 265.8890 274.9950 264.6130Q276.6770 263.3370 276.8510 259.7410L276.8510 257.1890L271.0510 257.1890Q268.6150 257.1890 267.3100 258.4070Q266.0050 259.6250 266.0050 261.5970Q266.0050 263.5110 267.3100 264.7000Q268.6150 265.8890 271.0510 265.8890M307.9390 272.6170Q303.8210 272.6170 300.7760 271.2540Q297.7310 269.8910 295.7010 267.5710Q293.6710 265.2510 292.6850 262.3220Q291.6990 259.3930 291.6990 256.2610L291.6990 255.1590Q291.6990 250.8090 293.5260 247.0390Q295.3530 243.2690 298.9780 240.9490Q302.6030 238.6290 307.8810 238.6290Q312.1730 238.6290 315.4790 240.2820Q318.7850 241.9350 320.7570 244.8930Q322.7290 247.8510 322.9610 251.6790L313.8550 251.6790Q313.6230 249.5330 312.1150 248.0540Q310.6070 246.5750 307.8810 246.5750Q304.3430 246.5750 302.6610 249.0980Q300.9790 251.6210 300.9790 255.7390Q300.9790 259.6250 302.5740 262.1480Q304.1690 264.6710 307.9390 264.6710Q310.7230 264.6710 312.2890 263.2210Q313.8550 261.7710 314.1450 259.3930L323.1930 259.3930Q322.9610 263.3370 320.9600 266.3240Q318.9590 269.3110 315.5660 270.9640Q312.1730 272.6170 307.9390 272.6170M348.0170 271.9210L343.5510 271.9210Q338.7370 271.9210 335.7790 270.7320Q332.8210 269.5430 331.4580 266.7300Q330.0950 263.9170 330.0950 259.1030L330.0950 246.5170L325.2810 246.5170L325.2810 239.7310L330.0950 239.7310L330.0950 231.1470L338.7370 231.1470L338.7370 239.7310L348.0170 239.7310L348.0170 246.5170L338.7370 246.5170L338.7370 259.4510Q338.7370 261.7130 339.9260 262.9020Q341.1150 264.0910 343.3190 264.0910L348.0170 264.0910L348.0170 271.9210M369.6510 272.6170Q364.0830 272.6170 360.1680 270.3550Q356.2530 268.0930 354.2230 264.4100Q352.1930 260.7270 352.1930 256.3770L352.1930 255.0430Q352.1930 250.5770 354.3100 246.8360Q356.4270 243.0950 360.3420 240.8620Q364.2570 238.6290 369.6510 238.6290Q375.0450 238.6290 378.9890 240.8620Q382.9330 243.0950 385.0500 246.8360Q387.1670 250.5770 387.1670 255.0430L387.1670 256.3770Q387.1670 260.7270 385.1080 264.4100Q383.0490 268.0930 379.1630 270.3550Q375.2770 272.6170 369.6510 272.6170M369.6510 264.7870Q373.6530 264.7870 375.7700 262.2060Q377.8870 259.6250 377.8870 255.7390Q377.8870 251.7370 375.7120 249.0980Q373.5370 246.4590 369.6510 246.4590Q365.7650 246.4590 363.6190 249.0980Q361.4730 251.7370 361.4730 255.7390Q361.4730 259.6250 363.5610 262.2060Q365.6490 264.7870 369.6510 264.7870M402.9430 271.5150L393.6630 271.5150L393.6630 239.7310L401.0290 239.7310L401.0290 250.5190Q401.5510 245.1250 404.3640 242.2250Q407.1770 239.3250 412.0490 239.3250L413.2670 239.3250L413.2670 247.3290L410.9470 247.3290Q407.0610 247.3290 405.0020 249.4170Q402.9430 251.5050 402.9430 255.3330L402.9430 271.5150M430.8990 270.8190L424.8670 270.8190L415.1230 239.7310L424.4610 239.7310L431.4790 263.5690L432.6390 263.5690L438.4390 239.7310L447.2550 239.7310L438.3810 274.0670Q437.3950 277.7790 435.7420 279.9830Q434.0890 282.1870 431.3340 283.1440Q428.5790 284.1010 424.4030 284.1010L418.7190 284.1010L418.7190 276.2130L425.3310 276.2130Q427.5350 276.2130 428.7820 275.3430Q430.0290 274.4730 430.6090 272.2110" fill="#ffffff" />
</svg>